# xmcd
#
# Track frame offsets: 
#        150
#        20314
#        38311
#        64365
#        81296
#        98797
#        117863
#        142285
#        159837
#        178731
#        199199
#
# Disc length: 2892 seconds
#
# Revision: 1
# Processed by: cddbd v1.5.2PL0 Copyright (c) Steve Scherf et al.
# Submitted via: ExactAudioCopy v1.0b3
#
DISCID=8e0b4a0b
DTITLE=Mikelyn Roderick - Copaseptic Is
DYEAR=2007
DGENRE=Soul
TTITLE0=Easy
TTITLE1=Thinkin' Of Us
TTITLE2=Slippin'
TTITLE3=If You Really Love Me
TTITLE4=Fantasy
TTITLE5=Love Of My Life
TTITLE6=Slick and Deep
TTITLE7=Last Winter
TTITLE8=Copaseptic Is
TTITLE9=Morning Light
TTITLE10=Bless You
EXTD=
EXTT0=
EXTT1=
EXTT2=
EXTT3=
EXTT4=
EXTT5=
EXTT6=
EXTT7=
EXTT8=
EXTT9=
EXTT10=
PLAYORDER=
